<?xml version="1.0" standalone="no"?>
<!DOCTYPE svg PUBLIC "-//W3C//DTD SVG 20010904//EN"
 "http://www.w3.org/TR/2001/REC-SVG-20010904/DTD/svg10.dtd">
<svg version="1.0" xmlns="http://www.w3.org/2000/svg"
 width="783.000000pt" height="261.000000pt" viewBox="0 0 783.000000 261.000000"
 preserveAspectRatio="xMidYMid meet">

<g transform="translate(0.000000,261.000000) scale(0.100000,-0.100000)"
fill="#000000" stroke="none">
<path d="M1982 2510 c-38 -31 -129 -60 -221 -69 -90 -10 -101 -9 -321 10 -161
14 -273 3 -358 -36 -56 -26 -127 -90 -117 -106 4 -5 43 -9 87 -9 62 0 86 4
100 16 23 22 106 29 138 12 14 -8 26 -22 28 -33 3 -19 -4 -20 -225 -20 -217 0
-231 -1 -287 -24 -119 -48 -170 -124 -147 -218 13 -52 55 -129 95 -178 l25
-30 1 40 c0 85 67 122 203 112 243 -18 508 -191 622 -408 37 -70 65 -170 65
-231 0 -21 4 -38 9 -38 24 0 208 228 263 325 69 122 83 171 83 280 0 90 -3
105 -27 152 -15 28 -50 74 -78 101 l-50 50 33 20 c40 23 83 76 92 114 l7 27
-40 -19 c-22 -11 -59 -22 -83 -26 l-44 -6 35 22 c69 43 127 111 145 168 8 27
-2 28 -33 2z"/>
<path d="M2393 2418 c-5 -7 -25 -49 -45 -93 -38 -86 -254 -560 -504 -1107 -85
-185 -154 -342 -154 -348 0 -7 43 -10 137 -8 l137 3 72 154 c44 97 78 158 90
163 160 63 226 85 229 75 5 -13 -89 -494 -97 -502 -3 -3 -77 -14 -164 -25
-342 -42 -489 -61 -499 -64 -5 -3 138 -5 319 -5 l328 -1 -7 -47 c-3 -27 -17
-104 -30 -173 -13 -69 -25 -135 -27 -147 -2 -16 24 -46 114 -127 64 -58 119
-106 121 -106 6 0 20 61 46 205 11 61 32 174 47 252 l26 143 1977 0 1976 0
245 30 c135 17 319 40 410 50 91 11 172 22 180 24 8 2 -1060 4 -2374 5 l-2389
1 7 53 c4 28 13 84 21 122 7 39 23 126 35 195 12 69 26 148 31 175 5 28 41
226 79 440 38 215 74 415 80 445 30 162 38 215 34 222 -3 4 -103 8 -223 8
-163 0 -221 -3 -228 -12z m77 -625 c-28 -142 -53 -265 -55 -273 -5 -14 -174
-85 -182 -76 -3 2 49 123 115 268 66 144 130 288 143 318 14 31 25 48 27 38 2
-9 -20 -133 -48 -275z"/>
<path d="M3155 2420 c-5 -9 -62 -184 -215 -670 -32 -102 -99 -314 -149 -471
-50 -157 -91 -294 -91 -305 0 -30 36 -82 69 -99 26 -13 77 -15 358 -13 l328 3
13 40 c19 56 363 1135 428 1341 30 94 54 174 54 177 0 4 -63 7 -139 7 l-140 0
-51 -162 c-28 -90 -55 -174 -60 -188 -5 -14 -36 -113 -70 -220 -34 -107 -65
-206 -70 -220 -5 -14 -36 -113 -70 -220 -34 -107 -71 -226 -83 -263 -25 -79
-28 -81 -147 -75 -55 2 -84 8 -89 17 -11 17 -18 -7 201 681 204 641 198 621
198 637 0 16 -265 19 -275 3z"/>
<path d="M4047 2383 c-8 -27 -38 -122 -67 -213 -29 -91 -65 -208 -82 -260 -16
-52 -38 -120 -48 -150 -10 -30 -46 -143 -80 -250 -34 -107 -93 -292 -131 -410
-38 -118 -69 -221 -69 -228 0 -9 73 -12 328 -12 l328 0 54 27 c101 50 118 76
182 278 31 99 75 239 98 310 23 72 55 172 71 223 64 204 89 284 138 437 28 88
51 172 51 186 0 15 -9 38 -21 53 -43 55 -50 56 -407 56 l-330 0 -15 -47z m431
-188 c26 -9 29 3 -178 -640 -26 -82 -69 -216 -95 -298 -56 -176 -59 -180 -186
-176 -44 2 -84 6 -89 9 -5 3 22 104 61 225 55 174 208 654 270 852 6 17 18 33
27 35 23 4 174 -1 190 -7z"/>
<path d="M4920 2268 c-29 -90 -74 -230 -100 -313 -27 -82 -62 -193 -79 -245
-42 -134 -166 -522 -212 -665 -21 -66 -41 -135 -45 -152 l-6 -33 135 0 c79 0
138 4 142 10 3 5 26 72 50 147 23 76 78 246 120 378 42 132 90 281 105 330 16
50 47 149 70 220 78 246 150 474 150 480 0 3 -63 5 -139 5 l-140 0 -51 -162z"/>
<path d="M5355 2418 c-23 -62 -63 -203 -59 -210 3 -4 57 -8 121 -8 88 0 114
-3 110 -12 -2 -7 -32 -101 -66 -208 -34 -107 -87 -274 -118 -370 -31 -96 -71
-222 -89 -280 -18 -58 -58 -183 -88 -279 -31 -95 -53 -178 -50 -182 9 -15 260
-11 271 4 8 10 88 254 203 622 29 93 90 285 175 553 l49 152 122 0 122 0 36
108 c20 59 36 110 36 115 0 4 -173 7 -385 7 -299 0 -387 -3 -390 -12z"/>
<path d="M6194 2283 c-25 -82 -129 -408 -230 -727 -173 -548 -183 -580 -170
-610 7 -17 26 -42 41 -56 l27 -25 256 0 257 0 27 85 c16 47 29 96 30 110 l3
25 -158 3 c-128 2 -159 5 -163 17 -6 15 112 399 129 423 7 9 53 12 168 12
l158 0 31 97 c16 54 30 103 30 110 0 10 -35 13 -155 13 -109 0 -155 3 -155 11
0 10 92 306 123 397 l11 32 166 0 c91 0 170 4 175 8 8 6 40 96 70 200 l6 22
-315 0 -315 0 -47 -147z"/>
<path d="M7074 2411 c-61 -28 -119 -85 -137 -133 -8 -24 -43 -131 -77 -238
-34 -107 -92 -292 -130 -410 -37 -118 -94 -296 -125 -395 -31 -99 -62 -199
-70 -222 -12 -36 -11 -45 3 -75 10 -18 32 -43 51 -55 34 -23 36 -23 345 -21
l310 3 52 162 c28 90 55 174 58 188 l7 26 -143 -3 -142 -3 -21 -70 -22 -70
-85 -3 c-68 -2 -87 0 -91 12 -6 16 317 1041 336 1066 7 8 17 18 22 22 13 10
165 10 165 1 0 -5 -9 -37 -20 -73 -11 -36 -20 -66 -20 -68 0 -1 64 -1 142 0
l141 3 53 165 c29 91 56 175 59 188 l5 22 -312 0 c-285 0 -317 -2 -354 -19z"/>
<path d="M90 2036 c0 -48 27 -190 51 -266 48 -152 135 -258 247 -300 49 -19
71 -21 157 -17 109 6 199 31 321 90 133 64 131 59 29 74 -276 40 -511 158
-707 355 l-98 98 0 -34z"/>
<path d="M1160 1825 c41 -66 80 -156 102 -233 19 -63 22 -101 22 -212 -1 -119
-4 -145 -28 -220 -15 -47 -39 -105 -52 -129 -13 -24 -24 -48 -24 -53 0 -20
167 79 227 135 192 180 163 437 -74 631 -57 47 -168 116 -188 116 -4 0 3 -16
15 -35z"/>
<path d="M1156 1653 c-73 -238 -268 -490 -485 -631 -49 -31 -97 -63 -107 -70
-16 -11 0 -12 96 -8 387 17 575 200 557 540 -6 108 -25 226 -36 226 -4 0 -15
-26 -25 -57z"/>
<path d="M1039 1578 c-214 -197 -514 -316 -799 -319 l-95 -1 53 -24 c132 -60
316 -88 437 -65 158 29 301 149 394 331 29 56 51 103 49 106 -2 2 -20 -11 -39
-28z"/>
</g>
</svg>
